<svg xmlns="http://www.w3.org/2000/svg" viewBox="0 0 680 220" role="img" aria-label="Cacaue">
  <rect width="680" height="220" fill="none"/>
  <g fill="none" stroke="#5a2c1f" stroke-linecap="round" stroke-linejoin="round">
    <path d="M72 40c-35 30-48 98-7 154 17-34 22-83 7-154Z" stroke-width="8"/>
    <path d="M72 40c36 29 50 98 8 154-16-34-23-84-8-154Z" stroke-width="8"/>
    <path d="M72 40c-4 48-4 105-7 154" stroke-width="4"/>
    <path d="M72 40c4 48 4 105 8 154" stroke-width="4"/>
    <path d="M68 38c8-14 22-23 39-23" stroke-width="7"/>
    <path d="M60 30c-17-8-34-6-48 2 16 8 32 8 48-2Z" fill="#5a2c1f" stroke-width="2"/>
  </g>
  <text x="145" y="145" fill="#5a2c1f" font-family="Brush Script MT, Segoe Script, Georgia, serif" font-size="118" font-style="italic" font-weight="700">Cacauê</text>
</svg>
